<?xml version="1.0" encoding="UTF-8" standalone="no"?><svg xmlns="http://www.w3.org/2000/svg" xmlns:xlink="http://www.w3.org/1999/xlink" contentStyleType="text/css" height="1319.4px" preserveAspectRatio="none" style="width:1185px;height:1319px;background:#FFFFFF;" version="1.1" viewBox="0 0 1185 1319" width="1185.3px" zoomAndPan="magnify"><defs/><g><ellipse cx="593.1" cy="18" fill="#222222" rx="9" ry="9" style="stroke:#222222;stroke-width:0.9;"/><rect fill="#F1F1F1" height="32.7097" rx="11.25" ry="11.25" style="stroke:#181818;stroke-width:0.45;" width="170.1" x="508.05" y="45"/><text fill="#000000" font-family="sans-serif" font-size="10.8" lengthAdjust="spacing" textLength="152.1" x="517.05" y="65.5453">Get list of Personio Employees</text><rect fill="#F1F1F1" height="32.7097" rx="11.25" ry="11.25" style="stroke:#181818;stroke-width:0.45;" width="161.1" x="512.55" y="95.7097"/><text fill="#000000" font-family="sans-serif" font-size="10.8" lengthAdjust="spacing" textLength="143.1" x="521.55" y="116.255">Randomize list of Employees</text><rect fill="#F1F1F1" height="32.7097" rx="11.25" ry="11.25" style="stroke:#181818;stroke-width:0.45;" width="248.4" x="468.9" y="297.5542"/><text fill="#000000" font-family="sans-serif" font-size="10.8" lengthAdjust="spacing" textLength="230.4" x="477.9" y="318.0995">Authenticate as Service Account for Employee</text><rect fill="#F1F1F1" height="32.7097" rx="11.25" ry="11.25" style="stroke:#181818;stroke-width:0.45;" width="150.3" x="517.95" y="348.2639"/><text fill="#000000" font-family="sans-serif" font-size="10.8" lengthAdjust="spacing" textLength="132.3" x="526.95" y="368.8092">Get list of Calendar Events</text><rect fill="#F1F1F1" height="32.7097" rx="11.25" ry="11.25" style="stroke:#181818;stroke-width:0.45;" width="193.5" x="496.35" y="398.9736"/><text fill="#000000" font-family="sans-serif" font-size="10.8" lengthAdjust="spacing" textLength="175.5" x="505.35" y="419.5189">Get list of Personio TimeOffPeriods</text><rect fill="#F1F1F1" height="32.7097" rx="11.25" ry="11.25" style="stroke:#181818;stroke-width:0.45;" width="189" x="564.075" y="562.4163"/><text fill="#000000" font-family="sans-serif" font-size="10.8" lengthAdjust="spacing" textLength="171" x="573.075" y="582.9616">Mark TimeOffPeriod as processed</text><polygon fill="#F1F1F1" points="627.975,613.126,689.175,613.126,699.975,623.926,689.175,634.726,627.975,634.726,617.175,623.926,627.975,613.126" style="stroke:#181818;stroke-width:0.45;"/><text fill="#000000" font-family="sans-serif" font-size="9.9" lengthAdjust="spacing" textLength="61.2" x="627.975" y="627.7672">Event status?</text><text fill="#000000" font-family="sans-serif" font-size="9.9" lengthAdjust="spacing" textLength="43.2" x="573.975" y="621.0254">cancelled</text><text fill="#000000" font-family="sans-serif" font-size="9.9" lengthAdjust="spacing" textLength="62.1" x="699.975" y="621.0254">not cancelled</text><rect fill="#F1F1F1" height="32.7097" rx="11.25" ry="11.25" style="stroke:#181818;stroke-width:0.45;" width="173.7" x="402.3" y="643.726"/><text fill="#000000" font-family="sans-serif" font-size="10.8" lengthAdjust="spacing" textLength="155.7" x="411.3" y="664.2713">Delete Personio TimeOffPeriod</text><polygon fill="#F1F1F1" points="698.85,688.2679,957.15,688.2679,967.95,699.0679,957.15,709.8679,698.85,709.8679,688.05,699.0679,698.85,688.2679" style="stroke:#181818;stroke-width:0.45;"/><text fill="#000000" font-family="sans-serif" font-size="9.9" lengthAdjust="spacing" textLength="258.3" x="698.85" y="702.9091">TimeOffPeriod was more recently updated than Event?</text><text fill="#000000" font-family="sans-serif" font-size="9.9" lengthAdjust="spacing" textLength="15.3" x="672.75" y="696.1672">yes</text><text fill="#000000" font-family="sans-serif" font-size="9.9" lengthAdjust="spacing" textLength="12.6" x="967.95" y="696.1672">no</text><rect fill="#F1F1F1" height="32.7097" rx="11.25" ry="11.25" style="stroke:#181818;stroke-width:0.45;" width="134.1" x="612" y="718.8679"/><text fill="#000000" font-family="sans-serif" font-size="10.8" lengthAdjust="spacing" textLength="116.1" x="621" y="739.4132">Update Calendar Event</text><rect fill="#F1F1F1" height="32.7097" rx="11.25" ry="11.25" style="stroke:#181818;stroke-width:0.45;" width="233.1" x="860.4" y="718.8679"/><text fill="#000000" font-family="sans-serif" font-size="10.8" lengthAdjust="spacing" textLength="215.1" x="869.4" y="739.4132">Re-create updated Personio TimeOffPeriod</text><polygon fill="#F1F1F1" points="828,756.9776,838.8,767.7776,828,778.5776,817.2,767.7776,828,756.9776" style="stroke:#181818;stroke-width:0.45;"/><polygon fill="#F1F1F1" points="751.95,643.726,904.05,643.726,914.85,654.526,904.05,665.326,751.95,665.326,741.15,654.526,751.95,643.726" style="stroke:#181818;stroke-width:0.45;"/><text fill="#000000" font-family="sans-serif" font-size="9.9" lengthAdjust="spacing" textLength="15.3" x="831.6" y="675.9091">yes</text><text fill="#000000" font-family="sans-serif" font-size="9.9" lengthAdjust="spacing" textLength="152.1" x="751.95" y="658.3672">Event and TimeOffPeriod differ?</text><text fill="#000000" font-family="sans-serif" font-size="9.9" lengthAdjust="spacing" textLength="12.6" x="914.85" y="651.6254">no</text><polygon fill="#F1F1F1" points="828,801.5194,838.8,812.3194,828,823.1194,817.2,812.3194,828,801.5194" style="stroke:#181818;stroke-width:0.45;"/><polygon fill="#F1F1F1" points="658.575,828.5194,669.375,839.3194,658.575,850.1194,647.775,839.3194,658.575,828.5194" style="stroke:#181818;stroke-width:0.45;"/><rect fill="#F1F1F1" height="32.7097" rx="11.25" ry="11.25" style="stroke:#181818;stroke-width:0.45;" width="131.4" x="696.6" y="889.7194"/><text fill="#000000" font-family="sans-serif" font-size="10.8" lengthAdjust="spacing" textLength="113.4" x="705.6" y="910.2647">Cancel Calendar Event</text><polygon fill="#F1F1F1" points="243.9,540.8163,369.9,540.8163,380.7,551.6163,369.9,562.4163,243.9,562.4163,233.1,551.6163,243.9,540.8163" style="stroke:#181818;stroke-width:0.45;"/><text fill="#000000" font-family="sans-serif" font-size="9.9" lengthAdjust="spacing" textLength="126" x="243.9" y="555.4575">a matching TimeOff exists?</text><text fill="#000000" font-family="sans-serif" font-size="9.9" lengthAdjust="spacing" textLength="15.3" x="380.7" y="548.7157">yes</text><polygon fill="#F1F1F1" points="276.3,868.1194,337.5,868.1194,348.3,878.9194,337.5,889.7194,276.3,889.7194,265.5,878.9194,276.3,868.1194" style="stroke:#181818;stroke-width:0.45;"/><text fill="#000000" font-family="sans-serif" font-size="9.9" lengthAdjust="spacing" textLength="61.2" x="276.3" y="882.7606">Event status?</text><text fill="#000000" font-family="sans-serif" font-size="9.9" lengthAdjust="spacing" textLength="62.1" x="348.3" y="876.0188">not cancelled</text><polygon fill="#F1F1F1" points="682.2,957.5291,693,968.3291,682.2,979.1291,671.4,968.3291,682.2,957.5291" style="stroke:#181818;stroke-width:0.45;"/><rect fill="#F1F1F1" height="32.7097" rx="11.25" ry="11.25" style="stroke:#181818;stroke-width:0.45;" width="170.1" x="597.15" y="1018.7291"/><text fill="#000000" font-family="sans-serif" font-size="10.8" lengthAdjust="spacing" textLength="152.1" x="606.15" y="1039.2744">Insert Personio TimeOffPeriod</text><polygon fill="#F1F1F1" points="65.7,501.2163,209.7,501.2163,220.5,512.0163,209.7,522.8163,65.7,522.8163,54.9,512.0163,65.7,501.2163" style="stroke:#181818;stroke-width:0.45;"/><text fill="#000000" font-family="sans-serif" font-size="9.9" lengthAdjust="spacing" textLength="144" x="65.7" y="515.8575">Event has TimeOff ID Property</text><text fill="#000000" font-family="sans-serif" font-size="9.9" lengthAdjust="spacing" textLength="15.3" x="220.5" y="509.1157">yes</text><polygon fill="#F1F1F1" points="86.4,997.1291,189,997.1291,199.8,1007.9291,189,1018.7291,86.4,1018.7291,75.6,1007.9291,86.4,997.1291" style="stroke:#181818;stroke-width:0.45;"/><text fill="#000000" font-family="sans-serif" font-size="9.9" lengthAdjust="spacing" textLength="102.6" x="86.4" y="1011.7703">Event status and title?</text><text fill="#000000" font-family="sans-serif" font-size="9.9" lengthAdjust="spacing" textLength="194.4" x="199.8" y="1005.0285">not cancelled and known keyword in title</text><polygon fill="#F1F1F1" points="593.1,1086.5388,603.9,1097.3388,593.1,1108.1388,582.3,1097.3388,593.1,1086.5388" style="stroke:#181818;stroke-width:0.45;"/><polygon fill="#F1F1F1" points="544.95,449.6833,641.25,449.6833,652.05,460.4833,641.25,471.2833,544.95,471.2833,534.15,460.4833,544.95,449.6833" style="stroke:#181818;stroke-width:0.45;"/><text fill="#000000" font-family="sans-serif" font-size="9.9" lengthAdjust="spacing" textLength="15.3" x="596.7" y="481.8663">yes</text><text fill="#000000" font-family="sans-serif" font-size="9.9" lengthAdjust="spacing" textLength="96.3" x="544.95" y="464.3245">have another Event?</text><text fill="#000000" font-family="sans-serif" font-size="9.9" lengthAdjust="spacing" textLength="12.6" x="521.55" y="457.5826">no</text><rect fill="#F1F1F1" height="32.7097" rx="11.25" ry="11.25" style="stroke:#181818;stroke-width:0.45;" width="150.3" x="517.95" y="1197.4719"/><text fill="#000000" font-family="sans-serif" font-size="10.8" lengthAdjust="spacing" textLength="132.3" x="526.95" y="1218.0171">Insert new Calendar Event</text><polygon fill="#F1F1F1" points="491.85,1145.9388,694.35,1145.9388,705.15,1156.7388,694.35,1167.5388,491.85,1167.5388,481.05,1156.7388,491.85,1145.9388" style="stroke:#181818;stroke-width:0.45;"/><text fill="#000000" font-family="sans-serif" font-size="9.9" lengthAdjust="spacing" textLength="15.3" x="596.7" y="1178.1219">yes</text><text fill="#000000" font-family="sans-serif" font-size="9.9" lengthAdjust="spacing" textLength="202.5" x="491.85" y="1160.58">have another unprocessed TimeOffPeriod?</text><text fill="#000000" font-family="sans-serif" font-size="9.9" lengthAdjust="spacing" textLength="12.6" x="468.45" y="1153.8382">no</text><polygon fill="#F1F1F1" points="538.65,247.645,647.55,247.645,658.35,261.1287,647.55,274.6124,538.65,274.6124,527.85,261.1287,538.65,247.645" style="stroke:#181818;stroke-width:0.45;"/><text fill="#000000" font-family="sans-serif" font-size="9.9" lengthAdjust="spacing" textLength="15.3" x="596.7" y="285.1954">yes</text><text fill="#000000" font-family="sans-serif" font-size="9.9" lengthAdjust="spacing" textLength="106.2" x="538.65" y="258.228">Employee status active</text><text fill="#000000" font-family="sans-serif" font-size="9.9" lengthAdjust="spacing" textLength="108" x="538.65" y="271.7117">and email white-listed?</text><polygon fill="#F1F1F1" points="593.1,1267.9816,603.9,1278.7816,593.1,1289.5816,582.3,1278.7816,593.1,1267.9816" style="stroke:#181818;stroke-width:0.45;"/><polygon fill="#F1F1F1" points="535.5,203.1031,650.7,203.1031,661.5,213.9031,650.7,224.7031,535.5,224.7031,524.7,213.9031,535.5,203.1031" style="stroke:#181818;stroke-width:0.45;"/><text fill="#000000" font-family="sans-serif" font-size="9.9" lengthAdjust="spacing" textLength="15.3" x="596.7" y="235.2861">yes</text><text fill="#000000" font-family="sans-serif" font-size="9.9" lengthAdjust="spacing" textLength="115.2" x="535.5" y="217.7443">Total runtime exceeded?</text><text fill="#000000" font-family="sans-serif" font-size="9.9" lengthAdjust="spacing" textLength="12.6" x="661.5" y="211.0024">no</text><ellipse cx="693.9" cy="213.9031" fill="none" rx="9.9" ry="9.9" style="stroke:#222222;stroke-width:0.9;"/><ellipse cx="693.9" cy="213.9031" fill="#222222" rx="5.4" ry="5.4" style="stroke:#111111;stroke-width:0.9;"/><polygon fill="#F1F1F1" points="551.7,146.4194,634.5,146.4194,645.3,157.2194,634.5,168.0194,551.7,168.0194,540.9,157.2194,551.7,146.4194" style="stroke:#181818;stroke-width:0.45;"/><text fill="#000000" font-family="sans-serif" font-size="9.9" lengthAdjust="spacing" textLength="15.3" x="596.7" y="178.6024">yes</text><text fill="#000000" font-family="sans-serif" font-size="9.9" lengthAdjust="spacing" textLength="82.8" x="551.7" y="161.0606">more Employees?</text><text fill="#000000" font-family="sans-serif" font-size="9.9" lengthAdjust="spacing" textLength="12.6" x="528.3" y="154.3187">no</text><ellipse cx="21.6" cy="199.5194" fill="none" rx="9.9" ry="9.9" style="stroke:#222222;stroke-width:0.9;"/><ellipse cx="21.6" cy="199.5194" fill="#222222" rx="5.4" ry="5.4" style="stroke:#111111;stroke-width:0.9;"/><line style="stroke:#181818;stroke-width:0.9;" x1="593.1" x2="593.1" y1="27" y2="45"/><polygon fill="#181818" points="589.5,36,593.1,45,596.7,36,593.1,39.6" style="stroke:#181818;stroke-width:0.9;"/><line style="stroke:#181818;stroke-width:0.9;" x1="593.1" x2="593.1" y1="77.7097" y2="95.7097"/><polygon fill="#181818" points="589.5,86.7097,593.1,95.7097,596.7,86.7097,593.1,90.3097" style="stroke:#181818;stroke-width:0.9;"/><line style="stroke:#181818;stroke-width:0.9;" x1="593.1" x2="593.1" y1="330.2639" y2="348.2639"/><polygon fill="#181818" points="589.5,339.2639,593.1,348.2639,596.7,339.2639,593.1,342.8639" style="stroke:#181818;stroke-width:0.9;"/><line style="stroke:#181818;stroke-width:0.9;" x1="593.1" x2="593.1" y1="380.9736" y2="398.9736"/><polygon fill="#181818" points="589.5,389.9736,593.1,398.9736,596.7,389.9736,593.1,393.5736" style="stroke:#181818;stroke-width:0.9;"/><line style="stroke:#181818;stroke-width:0.9;" x1="688.05" x2="679.05" y1="699.0679" y2="699.0679"/><line style="stroke:#181818;stroke-width:0.9;" x1="679.05" x2="679.05" y1="699.0679" y2="718.8679"/><polygon fill="#181818" points="675.45,709.8679,679.05,718.8679,682.65,709.8679,679.05,713.4679" style="stroke:#181818;stroke-width:0.9;"/><line style="stroke:#181818;stroke-width:0.9;" x1="967.95" x2="976.95" y1="699.0679" y2="699.0679"/><line style="stroke:#181818;stroke-width:0.9;" x1="976.95" x2="976.95" y1="699.0679" y2="718.8679"/><polygon fill="#181818" points="973.35,709.8679,976.95,718.8679,980.55,709.8679,976.95,713.4679" style="stroke:#181818;stroke-width:0.9;"/><line style="stroke:#181818;stroke-width:0.9;" x1="679.05" x2="679.05" y1="751.5776" y2="767.7776"/><line style="stroke:#181818;stroke-width:0.9;" x1="679.05" x2="817.2" y1="767.7776" y2="767.7776"/><polygon fill="#181818" points="808.2,764.1776,817.2,767.7776,808.2,771.3776,811.8,767.7776" style="stroke:#181818;stroke-width:0.9;"/><line style="stroke:#181818;stroke-width:0.9;" x1="976.95" x2="976.95" y1="751.5776" y2="767.7776"/><line style="stroke:#181818;stroke-width:0.9;" x1="976.95" x2="838.8" y1="767.7776" y2="767.7776"/><polygon fill="#181818" points="847.8,764.1776,838.8,767.7776,847.8,771.3776,844.2,767.7776" style="stroke:#181818;stroke-width:0.9;"/><line style="stroke:#181818;stroke-width:0.9;" x1="828" x2="828" y1="665.326" y2="688.2679"/><polygon fill="#181818" points="824.4,679.2679,828,688.2679,831.6,679.2679,828,682.8679" style="stroke:#181818;stroke-width:0.9;"/><line style="stroke:#181818;stroke-width:0.9;" x1="914.85" x2="1106.1" y1="654.526" y2="654.526"/><polygon fill="#181818" points="1102.5,724.4227,1106.1,733.4227,1109.7,724.4227,1106.1,728.0227" style="stroke:#181818;stroke-width:0.9;"/><line style="stroke:#181818;stroke-width:0.9;" x1="1106.1" x2="1106.1" y1="654.526" y2="812.3194"/><line style="stroke:#181818;stroke-width:0.9;" x1="1106.1" x2="838.8" y1="812.3194" y2="812.3194"/><polygon fill="#181818" points="847.8,808.7194,838.8,812.3194,847.8,815.9194,844.2,812.3194" style="stroke:#181818;stroke-width:0.9;"/><line style="stroke:#181818;stroke-width:0.9;" x1="828" x2="828" y1="778.5776" y2="801.5194"/><polygon fill="#181818" points="824.4,792.5194,828,801.5194,831.6,792.5194,828,796.1194" style="stroke:#181818;stroke-width:0.9;"/><line style="stroke:#181818;stroke-width:0.9;" x1="617.175" x2="489.15" y1="623.926" y2="623.926"/><line style="stroke:#181818;stroke-width:0.9;" x1="489.15" x2="489.15" y1="623.926" y2="643.726"/><polygon fill="#181818" points="485.55,634.726,489.15,643.726,492.75,634.726,489.15,638.326" style="stroke:#181818;stroke-width:0.9;"/><line style="stroke:#181818;stroke-width:0.9;" x1="699.975" x2="828" y1="623.926" y2="623.926"/><line style="stroke:#181818;stroke-width:0.9;" x1="828" x2="828" y1="623.926" y2="643.726"/><polygon fill="#181818" points="824.4,634.726,828,643.726,831.6,634.726,828,638.326" style="stroke:#181818;stroke-width:0.9;"/><line style="stroke:#181818;stroke-width:0.9;" x1="489.15" x2="489.15" y1="676.4357" y2="839.3194"/><line style="stroke:#181818;stroke-width:0.9;" x1="489.15" x2="647.775" y1="839.3194" y2="839.3194"/><polygon fill="#181818" points="638.775,835.7194,647.775,839.3194,638.775,842.9194,642.375,839.3194" style="stroke:#181818;stroke-width:0.9;"/><line style="stroke:#181818;stroke-width:0.9;" x1="828" x2="828" y1="823.1194" y2="839.3194"/><line style="stroke:#181818;stroke-width:0.9;" x1="828" x2="669.375" y1="839.3194" y2="839.3194"/><polygon fill="#181818" points="678.375,835.7194,669.375,839.3194,678.375,842.9194,674.775,839.3194" style="stroke:#181818;stroke-width:0.9;"/><line style="stroke:#181818;stroke-width:0.9;" x1="658.575" x2="658.575" y1="595.126" y2="613.126"/><polygon fill="#181818" points="654.975,604.126,658.575,613.126,662.175,604.126,658.575,607.726" style="stroke:#181818;stroke-width:0.9;"/><line style="stroke:#181818;stroke-width:0.9;" x1="380.7" x2="658.575" y1="551.6163" y2="551.6163"/><line style="stroke:#181818;stroke-width:0.9;" x1="658.575" x2="658.575" y1="551.6163" y2="562.4163"/><polygon fill="#181818" points="654.975,553.4163,658.575,562.4163,662.175,553.4163,658.575,557.0163" style="stroke:#181818;stroke-width:0.9;"/><line style="stroke:#181818;stroke-width:0.9;" x1="348.3" x2="762.3" y1="878.9194" y2="878.9194"/><line style="stroke:#181818;stroke-width:0.9;" x1="762.3" x2="762.3" y1="878.9194" y2="889.7194"/><polygon fill="#181818" points="758.7,880.7194,762.3,889.7194,765.9,880.7194,762.3,884.3194" style="stroke:#181818;stroke-width:0.9;"/><line style="stroke:#181818;stroke-width:0.9;" x1="306.9" x2="306.9" y1="562.4163" y2="868.1194"/><polygon fill="#181818" points="303.3,859.1194,306.9,868.1194,310.5,859.1194,306.9,862.7194" style="stroke:#181818;stroke-width:0.9;"/><text fill="#000000" font-family="sans-serif" font-size="9.9" lengthAdjust="spacing" textLength="12.6" x="306.9" y="707.8591">no</text><line style="stroke:#181818;stroke-width:0.9;" x1="658.575" x2="658.575" y1="850.1194" y2="863.6194"/><line style="stroke:#181818;stroke-width:0.9;" x1="658.575" x2="1125.9" y1="863.6194" y2="863.6194"/><line style="stroke:#181818;stroke-width:0.9;" x1="1125.9" x2="1125.9" y1="863.6194" y2="968.3291"/><line style="stroke:#181818;stroke-width:0.9;" x1="1125.9" x2="693" y1="968.3291" y2="968.3291"/><polygon fill="#181818" points="702,964.7291,693,968.3291,702,971.9291,698.4,968.3291" style="stroke:#181818;stroke-width:0.9;"/><line style="stroke:#181818;stroke-width:0.9;" x1="762.3" x2="762.3" y1="922.4291" y2="935.9291"/><line style="stroke:#181818;stroke-width:0.9;" x1="762.3" x2="1125.9" y1="935.9291" y2="935.9291"/><polygon fill="#181818" points="1116.9,932.3291,1125.9,935.9291,1116.9,939.5291,1120.5,935.9291" style="stroke:#181818;stroke-width:0.9;"/><line style="stroke:#181818;stroke-width:0.9;" x1="220.5" x2="306.9" y1="512.0163" y2="512.0163"/><line style="stroke:#181818;stroke-width:0.9;" x1="306.9" x2="306.9" y1="512.0163" y2="540.8163"/><polygon fill="#181818" points="303.3,531.8163,306.9,540.8163,310.5,531.8163,306.9,535.4163" style="stroke:#181818;stroke-width:0.9;"/><line style="stroke:#181818;stroke-width:0.9;" x1="306.9" x2="306.9" y1="889.7194" y2="926.9291"/><line style="stroke:#181818;stroke-width:0.9;" x1="306.9" x2="682.2" y1="926.9291" y2="926.9291"/><line style="stroke:#181818;stroke-width:0.9;" x1="682.2" x2="682.2" y1="926.9291" y2="957.5291"/><polygon fill="#181818" points="678.6,948.5291,682.2,957.5291,685.8,948.5291,682.2,952.1291" style="stroke:#181818;stroke-width:0.9;"/><text fill="#000000" font-family="sans-serif" font-size="9.9" lengthAdjust="spacing" textLength="43.2" x="306.9" y="932.4155">cancelled</text><line style="stroke:#181818;stroke-width:0.9;" x1="199.8" x2="682.2" y1="1007.9291" y2="1007.9291"/><line style="stroke:#181818;stroke-width:0.9;" x1="682.2" x2="682.2" y1="1007.9291" y2="1018.7291"/><polygon fill="#181818" points="678.6,1009.7291,682.2,1018.7291,685.8,1009.7291,682.2,1013.3291" style="stroke:#181818;stroke-width:0.9;"/><line style="stroke:#181818;stroke-width:0.9;" x1="137.7" x2="137.7" y1="522.8163" y2="997.1291"/><polygon fill="#181818" points="134.1,988.1291,137.7,997.1291,141.3,988.1291,137.7,991.7291" style="stroke:#181818;stroke-width:0.9;"/><text fill="#000000" font-family="sans-serif" font-size="9.9" lengthAdjust="spacing" textLength="12.6" x="137.7" y="757.5139">no</text><line style="stroke:#181818;stroke-width:0.9;" x1="682.2" x2="682.2" y1="979.1291" y2="992.6291"/><line style="stroke:#181818;stroke-width:0.9;" x1="682.2" x2="1125.9" y1="992.6291" y2="992.6291"/><line style="stroke:#181818;stroke-width:0.9;" x1="1125.9" x2="1125.9" y1="992.6291" y2="1097.3388"/><line style="stroke:#181818;stroke-width:0.9;" x1="1125.9" x2="603.9" y1="1097.3388" y2="1097.3388"/><polygon fill="#181818" points="612.9,1093.7388,603.9,1097.3388,612.9,1100.9388,609.3,1097.3388" style="stroke:#181818;stroke-width:0.9;"/><line style="stroke:#181818;stroke-width:0.9;" x1="682.2" x2="682.2" y1="1051.4388" y2="1064.9388"/><line style="stroke:#181818;stroke-width:0.9;" x1="682.2" x2="1125.9" y1="1064.9388" y2="1064.9388"/><polygon fill="#181818" points="1116.9,1061.3388,1125.9,1064.9388,1116.9,1068.5388,1120.5,1064.9388" style="stroke:#181818;stroke-width:0.9;"/><line style="stroke:#181818;stroke-width:0.9;" x1="593.1" x2="593.1" y1="471.2833" y2="487.7163"/><line style="stroke:#181818;stroke-width:0.9;" x1="593.1" x2="137.7" y1="487.7163" y2="487.7163"/><line style="stroke:#181818;stroke-width:0.9;" x1="137.7" x2="137.7" y1="487.7163" y2="501.2163"/><polygon fill="#181818" points="134.1,492.2163,137.7,501.2163,141.3,492.2163,137.7,495.8163" style="stroke:#181818;stroke-width:0.9;"/><line style="stroke:#181818;stroke-width:0.9;" x1="137.7" x2="137.7" y1="1018.7291" y2="1055.9388"/><line style="stroke:#181818;stroke-width:0.9;" x1="137.7" x2="593.1" y1="1055.9388" y2="1055.9388"/><line style="stroke:#181818;stroke-width:0.9;" x1="593.1" x2="593.1" y1="1055.9388" y2="1086.5388"/><polygon fill="#181818" points="589.5,1077.5388,593.1,1086.5388,596.7,1077.5388,593.1,1081.1388" style="stroke:#181818;stroke-width:0.9;"/><text fill="#000000" font-family="sans-serif" font-size="9.9" lengthAdjust="spacing" textLength="116.1" x="137.7" y="1061.4252">cancelled or no keyword</text><line style="stroke:#181818;stroke-width:0.9;" x1="593.1" x2="593.1" y1="1108.1388" y2="1117.1388"/><line style="stroke:#181818;stroke-width:0.9;" x1="593.1" x2="1136.7" y1="1117.1388" y2="1117.1388"/><polygon fill="#181818" points="1133.1,790.2857,1136.7,781.2857,1140.3,790.2857,1136.7,786.6857" style="stroke:#181818;stroke-width:0.9;"/><line style="stroke:#181818;stroke-width:0.9;" x1="1136.7" x2="1136.7" y1="460.4833" y2="1117.1388"/><line style="stroke:#181818;stroke-width:0.9;" x1="1136.7" x2="652.05" y1="460.4833" y2="460.4833"/><polygon fill="#181818" points="661.05,456.8833,652.05,460.4833,661.05,464.0833,657.45,460.4833" style="stroke:#181818;stroke-width:0.9;"/><line style="stroke:#181818;stroke-width:0.9;" x1="534.15" x2="44.1" y1="460.4833" y2="460.4833"/><polygon fill="#181818" points="40.5,777.6857,44.1,786.6857,47.7,777.6857,44.1,781.2857" style="stroke:#181818;stroke-width:0.9;"/><line style="stroke:#181818;stroke-width:0.9;" x1="44.1" x2="44.1" y1="460.4833" y2="1127.9388"/><line style="stroke:#181818;stroke-width:0.9;" x1="44.1" x2="593.1" y1="1127.9388" y2="1127.9388"/><line style="stroke:#181818;stroke-width:0.9;" x1="593.1" x2="593.1" y1="1127.9388" y2="1145.9388"/><polygon fill="#181818" points="589.5,1136.9388,593.1,1145.9388,596.7,1136.9388,593.1,1140.5388" style="stroke:#181818;stroke-width:0.9;"/><line style="stroke:#181818;stroke-width:0.9;" x1="593.1" x2="593.1" y1="431.6833" y2="449.6833"/><polygon fill="#181818" points="589.5,440.6833,593.1,449.6833,596.7,440.6833,593.1,444.2833" style="stroke:#181818;stroke-width:0.9;"/><line style="stroke:#181818;stroke-width:0.9;" x1="593.1" x2="593.1" y1="1167.5388" y2="1197.4719"/><polygon fill="#181818" points="589.5,1188.4719,593.1,1197.4719,596.7,1188.4719,593.1,1192.0719" style="stroke:#181818;stroke-width:0.9;"/><line style="stroke:#181818;stroke-width:0.9;" x1="593.1" x2="593.1" y1="1230.1816" y2="1239.1816"/><line style="stroke:#181818;stroke-width:0.9;" x1="593.1" x2="715.95" y1="1239.1816" y2="1239.1816"/><polygon fill="#181818" points="712.35,1205.2849,715.95,1196.2849,719.55,1205.2849,715.95,1201.6849" style="stroke:#181818;stroke-width:0.9;"/><line style="stroke:#181818;stroke-width:0.9;" x1="715.95" x2="715.95" y1="1156.7388" y2="1239.1816"/><line style="stroke:#181818;stroke-width:0.9;" x1="715.95" x2="705.15" y1="1156.7388" y2="1156.7388"/><polygon fill="#181818" points="714.15,1153.1388,705.15,1156.7388,714.15,1160.3388,710.55,1156.7388" style="stroke:#181818;stroke-width:0.9;"/><line style="stroke:#181818;stroke-width:0.9;" x1="481.05" x2="470.25" y1="1156.7388" y2="1156.7388"/><polygon fill="#181818" points="466.65,1192.6849,470.25,1201.6849,473.85,1192.6849,470.25,1196.2849" style="stroke:#181818;stroke-width:0.9;"/><line style="stroke:#181818;stroke-width:0.9;" x1="470.25" x2="470.25" y1="1156.7388" y2="1249.9816"/><line style="stroke:#181818;stroke-width:0.9;" x1="470.25" x2="593.1" y1="1249.9816" y2="1249.9816"/><line style="stroke:#181818;stroke-width:0.9;" x1="593.1" x2="593.1" y1="1249.9816" y2="1267.9816"/><polygon fill="#181818" points="589.5,1258.9816,593.1,1267.9816,596.7,1258.9816,593.1,1262.5816" style="stroke:#181818;stroke-width:0.9;"/><line style="stroke:#181818;stroke-width:0.9;" x1="593.1" x2="593.1" y1="274.6124" y2="297.5542"/><polygon fill="#181818" points="589.5,288.5542,593.1,297.5542,596.7,288.5542,593.1,292.1542" style="stroke:#181818;stroke-width:0.9;"/><line style="stroke:#181818;stroke-width:0.9;" x1="658.35" x2="1145.7" y1="261.1287" y2="261.1287"/><polygon fill="#181818" points="1142.1,745.876,1145.7,754.876,1149.3,745.876,1145.7,749.476" style="stroke:#181818;stroke-width:0.9;"/><line style="stroke:#181818;stroke-width:0.9;" x1="1145.7" x2="1145.7" y1="261.1287" y2="1278.7816"/><line style="stroke:#181818;stroke-width:0.9;" x1="1145.7" x2="603.9" y1="1278.7816" y2="1278.7816"/><polygon fill="#181818" points="612.9,1275.1816,603.9,1278.7816,612.9,1282.3816,609.3,1278.7816" style="stroke:#181818;stroke-width:0.9;"/><line style="stroke:#181818;stroke-width:0.9;" x1="593.1" x2="593.1" y1="224.7031" y2="247.645"/><polygon fill="#181818" points="589.5,238.645,593.1,247.645,596.7,238.645,593.1,242.245" style="stroke:#181818;stroke-width:0.9;"/><line style="stroke:#181818;stroke-width:0.9;" x1="661.5" x2="684" y1="213.9031" y2="213.9031"/><polygon fill="#181818" points="675,210.3031,684,213.9031,675,217.5031,678.6,213.9031" style="stroke:#181818;stroke-width:0.9;"/><line style="stroke:#181818;stroke-width:0.9;" x1="593.1" x2="593.1" y1="1289.5816" y2="1298.5816"/><line style="stroke:#181818;stroke-width:0.9;" x1="593.1" x2="1161.9" y1="1298.5816" y2="1298.5816"/><polygon fill="#181818" points="1158.3,734.1923,1161.9,725.1923,1165.5,734.1923,1161.9,730.5923" style="stroke:#181818;stroke-width:0.9;"/><line style="stroke:#181818;stroke-width:0.9;" x1="1161.9" x2="1161.9" y1="157.2194" y2="1298.5816"/><line style="stroke:#181818;stroke-width:0.9;" x1="1161.9" x2="645.3" y1="157.2194" y2="157.2194"/><polygon fill="#181818" points="654.3,153.6194,645.3,157.2194,654.3,160.8194,650.7,157.2194" style="stroke:#181818;stroke-width:0.9;"/><line style="stroke:#181818;stroke-width:0.9;" x1="593.1" x2="593.1" y1="168.0194" y2="203.1031"/><polygon fill="#181818" points="589.5,194.1031,593.1,203.1031,596.7,194.1031,593.1,197.7031" style="stroke:#181818;stroke-width:0.9;"/><line style="stroke:#181818;stroke-width:0.9;" x1="540.9" x2="21.6" y1="157.2194" y2="157.2194"/><line style="stroke:#181818;stroke-width:0.9;" x1="21.6" x2="21.6" y1="157.2194" y2="189.6194"/><polygon fill="#181818" points="18,180.6194,21.6,189.6194,25.2,180.6194,21.6,184.2194" style="stroke:#181818;stroke-width:0.9;"/><line style="stroke:#181818;stroke-width:0.9;" x1="593.1" x2="593.1" y1="128.4194" y2="146.4194"/><polygon fill="#181818" points="589.5,137.4194,593.1,146.4194,596.7,137.4194,593.1,141.0194" style="stroke:#181818;stroke-width:0.9;"/><!--SRC=[fLIzRjim4Dxr5DVD6V82yX04IL5uA1gaIQSk17cA25EaG59MbAVlKRPaIXPb0-Lcy-xxknE_rPPzL0mQXt_GUicPsXLWTEOyipxBVw079Pq7Ky0BMcUqDF2zgfNf4Dqsor-P5gQINpYMHRTPMqg5iAcCnVF_3tSW7MmwT7TP1dHa0Pituva2ssWlAmJyv8W21PNw4dLSF3GCS41AVUE0SIyF27yr2GAic5H0x1xlWwuaKZZvOnEkWdcFm1pyHdkG7E6HSqE2e31sLB-TjiRvF365MZ2gFH2QMwaSatmZix-AWdvB8q9WSSifl9AHBQODQJn1NmGOdpwRK0KbMJaHmEuPNgofQSHTEeWOWa75F2-b_XWny9FakscGa3ZvJsRtKtiXsTeQZiwXs6R9rhE1usH7GiuqHwLGf6bxwcTKI8DS3dc569MZk2beY9XMgSvImz9DtGfP56WVhgSz1vp2j9HQ__bOv4IaEcXgGNig29VfSHzk6Caae_SUPBQoswkzGqGtihpYFRSOY0RHgQ5S9TQKvtf-PstPVo2jN0VidYMveRFTIURorDVSbFxHrHNGXEYau7vTlVGAbwNtztjjMWrxx5fZ1KXzR5WMaE-qexVbvl7EN04ziDeCN9SK2_xehzFxU37nfNUpqUFJCzKMlwKfLnhRrLbDjIo8llnid3Tr5bNDx8JhVm00]--></g></svg>