<?xml version="1.0" encoding="UTF-8" standalone="no"?><svg xmlns="http://www.w3.org/2000/svg" xmlns:xlink="http://www.w3.org/1999/xlink" contentStyleType="text/css" height="1466px" preserveAspectRatio="none" style="width:1317px;height:1466px;background:#FFFFFF;" version="1.1" viewBox="0 0 1317 1466" width="1317px" zoomAndPan="magnify"><defs/><g><ellipse cx="659" cy="20" fill="#222222" rx="10" ry="10" style="stroke:#222222;stroke-width:1.0;"/><rect fill="#F1F1F1" height="36.3441" rx="12.5" ry="12.5" style="stroke:#181818;stroke-width:0.5;" width="189" x="564.5" y="50"/><text fill="#000000" font-family="sans-serif" font-size="12" lengthAdjust="spacing" textLength="169" x="574.5" y="72.8281">Get list of Personio Employees</text><rect fill="#F1F1F1" height="36.3441" rx="12.5" ry="12.5" style="stroke:#181818;stroke-width:0.5;" width="179" x="569.5" y="106.3441"/><text fill="#000000" font-family="sans-serif" font-size="12" lengthAdjust="spacing" textLength="159" x="579.5" y="129.1722">Randomize list of Employees</text><rect fill="#F1F1F1" height="36.3441" rx="12.5" ry="12.5" style="stroke:#181818;stroke-width:0.5;" width="276" x="521" y="330.6158"/><text fill="#000000" font-family="sans-serif" font-size="12" lengthAdjust="spacing" textLength="256" x="531" y="353.4439">Authenticate as Service Account for Employee</text><rect fill="#F1F1F1" height="36.3441" rx="12.5" ry="12.5" style="stroke:#181818;stroke-width:0.5;" width="167" x="575.5" y="386.9599"/><text fill="#000000" font-family="sans-serif" font-size="12" lengthAdjust="spacing" textLength="147" x="585.5" y="409.788">Get list of Calendar Events</text><rect fill="#F1F1F1" height="36.3441" rx="12.5" ry="12.5" style="stroke:#181818;stroke-width:0.5;" width="215" x="551.5" y="443.304"/><text fill="#000000" font-family="sans-serif" font-size="12" lengthAdjust="spacing" textLength="195" x="561.5" y="466.1321">Get list of Personio TimeOffPeriods</text><rect fill="#F1F1F1" height="36.3441" rx="12.5" ry="12.5" style="stroke:#181818;stroke-width:0.5;" width="210" x="626.75" y="624.907"/><text fill="#000000" font-family="sans-serif" font-size="12" lengthAdjust="spacing" textLength="190" x="636.75" y="647.7351">Mark TimeOffPeriod as processed</text><polygon fill="#F1F1F1" points="697.75,681.2511,765.75,681.2511,777.75,693.2511,765.75,705.2511,697.75,705.2511,685.75,693.2511,697.75,681.2511" style="stroke:#181818;stroke-width:0.5;"/><text fill="#000000" font-family="sans-serif" font-size="11" lengthAdjust="spacing" textLength="68" x="697.75" y="697.5191">Event status?</text><text fill="#000000" font-family="sans-serif" font-size="11" lengthAdjust="spacing" textLength="48" x="637.75" y="690.0282">cancelled</text><text fill="#000000" font-family="sans-serif" font-size="11" lengthAdjust="spacing" textLength="69" x="777.75" y="690.0282">not cancelled</text><rect fill="#F1F1F1" height="36.3441" rx="12.5" ry="12.5" style="stroke:#181818;stroke-width:0.5;" width="193" x="447" y="715.2511"/><text fill="#000000" font-family="sans-serif" font-size="12" lengthAdjust="spacing" textLength="173" x="457" y="738.0792">Delete Personio TimeOffPeriod</text><polygon fill="#F1F1F1" points="776.5,764.7421,1063.5,764.7421,1075.5,776.7421,1063.5,788.7421,776.5,788.7421,764.5,776.7421,776.5,764.7421" style="stroke:#181818;stroke-width:0.5;"/><text fill="#000000" font-family="sans-serif" font-size="11" lengthAdjust="spacing" textLength="287" x="776.5" y="781.0101">TimeOffPeriod was more recently updated than Event?</text><text fill="#000000" font-family="sans-serif" font-size="11" lengthAdjust="spacing" textLength="17" x="747.5" y="773.5191">yes</text><text fill="#000000" font-family="sans-serif" font-size="11" lengthAdjust="spacing" textLength="14" x="1075.5" y="773.5191">no</text><rect fill="#F1F1F1" height="36.3441" rx="12.5" ry="12.5" style="stroke:#181818;stroke-width:0.5;" width="149" x="680" y="798.7421"/><text fill="#000000" font-family="sans-serif" font-size="12" lengthAdjust="spacing" textLength="129" x="690" y="821.5702">Update Calendar Event</text><rect fill="#F1F1F1" height="36.3441" rx="12.5" ry="12.5" style="stroke:#181818;stroke-width:0.5;" width="259" x="956" y="798.7421"/><text fill="#000000" font-family="sans-serif" font-size="12" lengthAdjust="spacing" textLength="239" x="966" y="821.5702">Re-create updated Personio TimeOffPeriod</text><polygon fill="#F1F1F1" points="920,841.0862,932,853.0862,920,865.0862,908,853.0862,920,841.0862" style="stroke:#181818;stroke-width:0.5;"/><polygon fill="#F1F1F1" points="835.5,715.2511,1004.5,715.2511,1016.5,727.2511,1004.5,739.2511,835.5,739.2511,823.5,727.2511,835.5,715.2511" style="stroke:#181818;stroke-width:0.5;"/><text fill="#000000" font-family="sans-serif" font-size="11" lengthAdjust="spacing" textLength="17" x="924" y="751.0101">yes</text><text fill="#000000" font-family="sans-serif" font-size="11" lengthAdjust="spacing" textLength="169" x="835.5" y="731.5191">Event and TimeOffPeriod differ?</text><text fill="#000000" font-family="sans-serif" font-size="11" lengthAdjust="spacing" textLength="14" x="1016.5" y="724.0282">no</text><polygon fill="#F1F1F1" points="920,890.5772,932,902.5772,920,914.5772,908,902.5772,920,890.5772" style="stroke:#181818;stroke-width:0.5;"/><polygon fill="#F1F1F1" points="731.75,920.5772,743.75,932.5772,731.75,944.5772,719.75,932.5772,731.75,920.5772" style="stroke:#181818;stroke-width:0.5;"/><rect fill="#F1F1F1" height="36.3441" rx="12.5" ry="12.5" style="stroke:#181818;stroke-width:0.5;" width="146" x="774" y="988.5772"/><text fill="#000000" font-family="sans-serif" font-size="12" lengthAdjust="spacing" textLength="126" x="784" y="1011.4052">Cancel Calendar Event</text><polygon fill="#F1F1F1" points="271,600.907,411,600.907,423,612.907,411,624.907,271,624.907,259,612.907,271,600.907" style="stroke:#181818;stroke-width:0.5;"/><text fill="#000000" font-family="sans-serif" font-size="11" lengthAdjust="spacing" textLength="140" x="271" y="617.175">a matching TimeOff exists?</text><text fill="#000000" font-family="sans-serif" font-size="11" lengthAdjust="spacing" textLength="17" x="423" y="609.6841">yes</text><polygon fill="#F1F1F1" points="307,964.5772,375,964.5772,387,976.5772,375,988.5772,307,988.5772,295,976.5772,307,964.5772" style="stroke:#181818;stroke-width:0.5;"/><text fill="#000000" font-family="sans-serif" font-size="11" lengthAdjust="spacing" textLength="68" x="307" y="980.8451">Event status?</text><text fill="#000000" font-family="sans-serif" font-size="11" lengthAdjust="spacing" textLength="69" x="387" y="973.3542">not cancelled</text><polygon fill="#F1F1F1" points="758,1063.9213,770,1075.9213,758,1087.9213,746,1075.9213,758,1063.9213" style="stroke:#181818;stroke-width:0.5;"/><rect fill="#F1F1F1" height="36.3441" rx="12.5" ry="12.5" style="stroke:#181818;stroke-width:0.5;" width="189" x="663.5" y="1131.9213"/><text fill="#000000" font-family="sans-serif" font-size="12" lengthAdjust="spacing" textLength="169" x="673.5" y="1154.7494">Insert Personio TimeOffPeriod</text><polygon fill="#F1F1F1" points="73,556.907,233,556.907,245,568.907,233,580.907,73,580.907,61,568.907,73,556.907" style="stroke:#181818;stroke-width:0.5;"/><text fill="#000000" font-family="sans-serif" font-size="11" lengthAdjust="spacing" textLength="160" x="73" y="573.175">Event has TimeOff ID Property</text><text fill="#000000" font-family="sans-serif" font-size="11" lengthAdjust="spacing" textLength="17" x="245" y="565.6841">yes</text><polygon fill="#F1F1F1" points="96,1107.9213,210,1107.9213,222,1119.9213,210,1131.9213,96,1131.9213,84,1119.9213,96,1107.9213" style="stroke:#181818;stroke-width:0.5;"/><text fill="#000000" font-family="sans-serif" font-size="11" lengthAdjust="spacing" textLength="114" x="96" y="1124.1892">Event status and title?</text><text fill="#000000" font-family="sans-serif" font-size="11" lengthAdjust="spacing" textLength="216" x="222" y="1116.6983">not cancelled and known keyword in title</text><polygon fill="#F1F1F1" points="659,1207.2654,671,1219.2654,659,1231.2654,647,1219.2654,659,1207.2654" style="stroke:#181818;stroke-width:0.5;"/><polygon fill="#F1F1F1" points="605.5,499.6481,712.5,499.6481,724.5,511.6481,712.5,523.6481,605.5,523.6481,593.5,511.6481,605.5,499.6481" style="stroke:#181818;stroke-width:0.5;"/><text fill="#000000" font-family="sans-serif" font-size="11" lengthAdjust="spacing" textLength="17" x="663" y="535.407">yes</text><text fill="#000000" font-family="sans-serif" font-size="11" lengthAdjust="spacing" textLength="107" x="605.5" y="515.9161">have another Event?</text><text fill="#000000" font-family="sans-serif" font-size="11" lengthAdjust="spacing" textLength="14" x="579.5" y="508.4251">no</text><rect fill="#F1F1F1" height="36.3441" rx="12.5" ry="12.5" style="stroke:#181818;stroke-width:0.5;" width="167" x="575.5" y="1330.5243"/><text fill="#000000" font-family="sans-serif" font-size="12" lengthAdjust="spacing" textLength="147" x="585.5" y="1353.3524">Insert new Calendar Event</text><polygon fill="#F1F1F1" points="546.5,1273.2654,771.5,1273.2654,783.5,1285.2654,771.5,1297.2654,546.5,1297.2654,534.5,1285.2654,546.5,1273.2654" style="stroke:#181818;stroke-width:0.5;"/><text fill="#000000" font-family="sans-serif" font-size="11" lengthAdjust="spacing" textLength="17" x="663" y="1309.0243">yes</text><text fill="#000000" font-family="sans-serif" font-size="11" lengthAdjust="spacing" textLength="225" x="546.5" y="1289.5333">have another unprocessed TimeOffPeriod?</text><text fill="#000000" font-family="sans-serif" font-size="11" lengthAdjust="spacing" textLength="14" x="520.5" y="1282.0424">no</text><polygon fill="#F1F1F1" points="598.5,275.1611,719.5,275.1611,731.5,290.1429,719.5,305.1248,598.5,305.1248,586.5,290.1429,598.5,275.1611" style="stroke:#181818;stroke-width:0.5;"/><text fill="#000000" font-family="sans-serif" font-size="11" lengthAdjust="spacing" textLength="17" x="663" y="316.8837">yes</text><text fill="#000000" font-family="sans-serif" font-size="11" lengthAdjust="spacing" textLength="118" x="598.5" y="286.92">Employee status active</text><text fill="#000000" font-family="sans-serif" font-size="11" lengthAdjust="spacing" textLength="120" x="598.5" y="301.9019">and email white-listed?</text><polygon fill="#F1F1F1" points="659,1408.8684,671,1420.8684,659,1432.8684,647,1420.8684,659,1408.8684" style="stroke:#181818;stroke-width:0.5;"/><polygon fill="#F1F1F1" points="595,225.6701,723,225.6701,735,237.6701,723,249.6701,595,249.6701,583,237.6701,595,225.6701" style="stroke:#181818;stroke-width:0.5;"/><text fill="#000000" font-family="sans-serif" font-size="11" lengthAdjust="spacing" textLength="14" x="663" y="261.429">no</text><text fill="#000000" font-family="sans-serif" font-size="11" lengthAdjust="spacing" textLength="128" x="595" y="241.9381">Total runtime exceeded?</text><text fill="#000000" font-family="sans-serif" font-size="11" lengthAdjust="spacing" textLength="17" x="735" y="234.4471">yes</text><ellipse cx="774" cy="237.6701" fill="none" rx="11" ry="11" style="stroke:#222222;stroke-width:1.0;"/><ellipse cx="774" cy="237.6701" fill="#222222" rx="6" ry="6" style="stroke:#111111;stroke-width:1.0;"/><polygon fill="#F1F1F1" points="613,162.6882,705,162.6882,717,174.6882,705,186.6882,613,186.6882,601,174.6882,613,162.6882" style="stroke:#181818;stroke-width:0.5;"/><text fill="#000000" font-family="sans-serif" font-size="11" lengthAdjust="spacing" textLength="17" x="663" y="198.4471">yes</text><text fill="#000000" font-family="sans-serif" font-size="11" lengthAdjust="spacing" textLength="92" x="613" y="178.9562">more Employees?</text><text fill="#000000" font-family="sans-serif" font-size="11" lengthAdjust="spacing" textLength="14" x="587" y="171.4653">no</text><ellipse cx="24" cy="221.6882" fill="none" rx="11" ry="11" style="stroke:#222222;stroke-width:1.0;"/><ellipse cx="24" cy="221.6882" fill="#222222" rx="6" ry="6" style="stroke:#111111;stroke-width:1.0;"/><line style="stroke:#181818;stroke-width:1.0;" x1="659" x2="659" y1="30" y2="50"/><polygon fill="#181818" points="655,40,659,50,663,40,659,44" style="stroke:#181818;stroke-width:1.0;"/><line style="stroke:#181818;stroke-width:1.0;" x1="659" x2="659" y1="86.3441" y2="106.3441"/><polygon fill="#181818" points="655,96.3441,659,106.3441,663,96.3441,659,100.3441" style="stroke:#181818;stroke-width:1.0;"/><line style="stroke:#181818;stroke-width:1.0;" x1="659" x2="659" y1="366.9599" y2="386.9599"/><polygon fill="#181818" points="655,376.9599,659,386.9599,663,376.9599,659,380.9599" style="stroke:#181818;stroke-width:1.0;"/><line style="stroke:#181818;stroke-width:1.0;" x1="659" x2="659" y1="423.304" y2="443.304"/><polygon fill="#181818" points="655,433.304,659,443.304,663,433.304,659,437.304" style="stroke:#181818;stroke-width:1.0;"/><line style="stroke:#181818;stroke-width:1.0;" x1="764.5" x2="754.5" y1="776.7421" y2="776.7421"/><line style="stroke:#181818;stroke-width:1.0;" x1="754.5" x2="754.5" y1="776.7421" y2="798.7421"/><polygon fill="#181818" points="750.5,788.7421,754.5,798.7421,758.5,788.7421,754.5,792.7421" style="stroke:#181818;stroke-width:1.0;"/><line style="stroke:#181818;stroke-width:1.0;" x1="1075.5" x2="1085.5" y1="776.7421" y2="776.7421"/><line style="stroke:#181818;stroke-width:1.0;" x1="1085.5" x2="1085.5" y1="776.7421" y2="798.7421"/><polygon fill="#181818" points="1081.5,788.7421,1085.5,798.7421,1089.5,788.7421,1085.5,792.7421" style="stroke:#181818;stroke-width:1.0;"/><line style="stroke:#181818;stroke-width:1.0;" x1="754.5" x2="754.5" y1="835.0862" y2="853.0862"/><line style="stroke:#181818;stroke-width:1.0;" x1="754.5" x2="908" y1="853.0862" y2="853.0862"/><polygon fill="#181818" points="898,849.0862,908,853.0862,898,857.0862,902,853.0862" style="stroke:#181818;stroke-width:1.0;"/><line style="stroke:#181818;stroke-width:1.0;" x1="1085.5" x2="1085.5" y1="835.0862" y2="853.0862"/><line style="stroke:#181818;stroke-width:1.0;" x1="1085.5" x2="932" y1="853.0862" y2="853.0862"/><polygon fill="#181818" points="942,849.0862,932,853.0862,942,857.0862,938,853.0862" style="stroke:#181818;stroke-width:1.0;"/><line style="stroke:#181818;stroke-width:1.0;" x1="920" x2="920" y1="739.2511" y2="764.7421"/><polygon fill="#181818" points="916,754.7421,920,764.7421,924,754.7421,920,758.7421" style="stroke:#181818;stroke-width:1.0;"/><line style="stroke:#181818;stroke-width:1.0;" x1="1016.5" x2="1229" y1="727.2511" y2="727.2511"/><polygon fill="#181818" points="1225,804.9141,1229,814.9141,1233,804.9141,1229,808.9141" style="stroke:#181818;stroke-width:1.0;"/><line style="stroke:#181818;stroke-width:1.0;" x1="1229" x2="1229" y1="727.2511" y2="902.5772"/><line style="stroke:#181818;stroke-width:1.0;" x1="1229" x2="932" y1="902.5772" y2="902.5772"/><polygon fill="#181818" points="942,898.5772,932,902.5772,942,906.5772,938,902.5772" style="stroke:#181818;stroke-width:1.0;"/><line style="stroke:#181818;stroke-width:1.0;" x1="920" x2="920" y1="865.0862" y2="890.5772"/><polygon fill="#181818" points="916,880.5772,920,890.5772,924,880.5772,920,884.5772" style="stroke:#181818;stroke-width:1.0;"/><line style="stroke:#181818;stroke-width:1.0;" x1="685.75" x2="543.5" y1="693.2511" y2="693.2511"/><line style="stroke:#181818;stroke-width:1.0;" x1="543.5" x2="543.5" y1="693.2511" y2="715.2511"/><polygon fill="#181818" points="539.5,705.2511,543.5,715.2511,547.5,705.2511,543.5,709.2511" style="stroke:#181818;stroke-width:1.0;"/><line style="stroke:#181818;stroke-width:1.0;" x1="777.75" x2="920" y1="693.2511" y2="693.2511"/><line style="stroke:#181818;stroke-width:1.0;" x1="920" x2="920" y1="693.2511" y2="715.2511"/><polygon fill="#181818" points="916,705.2511,920,715.2511,924,705.2511,920,709.2511" style="stroke:#181818;stroke-width:1.0;"/><line style="stroke:#181818;stroke-width:1.0;" x1="543.5" x2="543.5" y1="751.5953" y2="932.5772"/><line style="stroke:#181818;stroke-width:1.0;" x1="543.5" x2="719.75" y1="932.5772" y2="932.5772"/><polygon fill="#181818" points="709.75,928.5772,719.75,932.5772,709.75,936.5772,713.75,932.5772" style="stroke:#181818;stroke-width:1.0;"/><line style="stroke:#181818;stroke-width:1.0;" x1="920" x2="920" y1="914.5772" y2="932.5772"/><line style="stroke:#181818;stroke-width:1.0;" x1="920" x2="743.75" y1="932.5772" y2="932.5772"/><polygon fill="#181818" points="753.75,928.5772,743.75,932.5772,753.75,936.5772,749.75,932.5772" style="stroke:#181818;stroke-width:1.0;"/><line style="stroke:#181818;stroke-width:1.0;" x1="731.75" x2="731.75" y1="661.2511" y2="681.2511"/><polygon fill="#181818" points="727.75,671.2511,731.75,681.2511,735.75,671.2511,731.75,675.2511" style="stroke:#181818;stroke-width:1.0;"/><line style="stroke:#181818;stroke-width:1.0;" x1="423" x2="731.75" y1="612.907" y2="612.907"/><line style="stroke:#181818;stroke-width:1.0;" x1="731.75" x2="731.75" y1="612.907" y2="624.907"/><polygon fill="#181818" points="727.75,614.907,731.75,624.907,735.75,614.907,731.75,618.907" style="stroke:#181818;stroke-width:1.0;"/><line style="stroke:#181818;stroke-width:1.0;" x1="387" x2="847" y1="976.5772" y2="976.5772"/><line style="stroke:#181818;stroke-width:1.0;" x1="847" x2="847" y1="976.5772" y2="988.5772"/><polygon fill="#181818" points="843,978.5772,847,988.5772,851,978.5772,847,982.5772" style="stroke:#181818;stroke-width:1.0;"/><line style="stroke:#181818;stroke-width:1.0;" x1="341" x2="341" y1="624.907" y2="964.5772"/><polygon fill="#181818" points="337,954.5772,341,964.5772,345,954.5772,341,958.5772" style="stroke:#181818;stroke-width:1.0;"/><text fill="#000000" font-family="sans-serif" font-size="11" lengthAdjust="spacing" textLength="14" x="341" y="786.5101">no</text><line style="stroke:#181818;stroke-width:1.0;" x1="731.75" x2="731.75" y1="944.5772" y2="959.5772"/><line style="stroke:#181818;stroke-width:1.0;" x1="731.75" x2="1251" y1="959.5772" y2="959.5772"/><line style="stroke:#181818;stroke-width:1.0;" x1="1251" x2="1251" y1="959.5772" y2="1075.9213"/><line style="stroke:#181818;stroke-width:1.0;" x1="1251" x2="770" y1="1075.9213" y2="1075.9213"/><polygon fill="#181818" points="780,1071.9213,770,1075.9213,780,1079.9213,776,1075.9213" style="stroke:#181818;stroke-width:1.0;"/><line style="stroke:#181818;stroke-width:1.0;" x1="847" x2="847" y1="1024.9213" y2="1039.9213"/><line style="stroke:#181818;stroke-width:1.0;" x1="847" x2="1251" y1="1039.9213" y2="1039.9213"/><polygon fill="#181818" points="1241,1035.9213,1251,1039.9213,1241,1043.9213,1245,1039.9213" style="stroke:#181818;stroke-width:1.0;"/><line style="stroke:#181818;stroke-width:1.0;" x1="245" x2="341" y1="568.907" y2="568.907"/><line style="stroke:#181818;stroke-width:1.0;" x1="341" x2="341" y1="568.907" y2="600.907"/><polygon fill="#181818" points="337,590.907,341,600.907,345,590.907,341,594.907" style="stroke:#181818;stroke-width:1.0;"/><line style="stroke:#181818;stroke-width:1.0;" x1="341" x2="341" y1="988.5772" y2="1029.9213"/><line style="stroke:#181818;stroke-width:1.0;" x1="341" x2="758" y1="1029.9213" y2="1029.9213"/><line style="stroke:#181818;stroke-width:1.0;" x1="758" x2="758" y1="1029.9213" y2="1063.9213"/><polygon fill="#181818" points="754,1053.9213,758,1063.9213,762,1053.9213,758,1057.9213" style="stroke:#181818;stroke-width:1.0;"/><text fill="#000000" font-family="sans-serif" font-size="11" lengthAdjust="spacing" textLength="48" x="341" y="1036.0172">cancelled</text><line style="stroke:#181818;stroke-width:1.0;" x1="222" x2="758" y1="1119.9213" y2="1119.9213"/><line style="stroke:#181818;stroke-width:1.0;" x1="758" x2="758" y1="1119.9213" y2="1131.9213"/><polygon fill="#181818" points="754,1121.9213,758,1131.9213,762,1121.9213,758,1125.9213" style="stroke:#181818;stroke-width:1.0;"/><line style="stroke:#181818;stroke-width:1.0;" x1="153" x2="153" y1="580.907" y2="1107.9213"/><polygon fill="#181818" points="149,1097.9213,153,1107.9213,157,1097.9213,153,1101.9213" style="stroke:#181818;stroke-width:1.0;"/><text fill="#000000" font-family="sans-serif" font-size="11" lengthAdjust="spacing" textLength="14" x="153" y="841.6821">no</text><line style="stroke:#181818;stroke-width:1.0;" x1="758" x2="758" y1="1087.9213" y2="1102.9213"/><line style="stroke:#181818;stroke-width:1.0;" x1="758" x2="1251" y1="1102.9213" y2="1102.9213"/><line style="stroke:#181818;stroke-width:1.0;" x1="1251" x2="1251" y1="1102.9213" y2="1219.2654"/><line style="stroke:#181818;stroke-width:1.0;" x1="1251" x2="671" y1="1219.2654" y2="1219.2654"/><polygon fill="#181818" points="681,1215.2654,671,1219.2654,681,1223.2654,677,1219.2654" style="stroke:#181818;stroke-width:1.0;"/><line style="stroke:#181818;stroke-width:1.0;" x1="758" x2="758" y1="1168.2654" y2="1183.2654"/><line style="stroke:#181818;stroke-width:1.0;" x1="758" x2="1251" y1="1183.2654" y2="1183.2654"/><polygon fill="#181818" points="1241,1179.2654,1251,1183.2654,1241,1187.2654,1245,1183.2654" style="stroke:#181818;stroke-width:1.0;"/><line style="stroke:#181818;stroke-width:1.0;" x1="659" x2="659" y1="523.6481" y2="541.907"/><line style="stroke:#181818;stroke-width:1.0;" x1="659" x2="153" y1="541.907" y2="541.907"/><line style="stroke:#181818;stroke-width:1.0;" x1="153" x2="153" y1="541.907" y2="556.907"/><polygon fill="#181818" points="149,546.907,153,556.907,157,546.907,153,550.907" style="stroke:#181818;stroke-width:1.0;"/><line style="stroke:#181818;stroke-width:1.0;" x1="153" x2="153" y1="1131.9213" y2="1173.2654"/><line style="stroke:#181818;stroke-width:1.0;" x1="153" x2="659" y1="1173.2654" y2="1173.2654"/><line style="stroke:#181818;stroke-width:1.0;" x1="659" x2="659" y1="1173.2654" y2="1207.2654"/><polygon fill="#181818" points="655,1197.2654,659,1207.2654,663,1197.2654,659,1201.2654" style="stroke:#181818;stroke-width:1.0;"/><text fill="#000000" font-family="sans-serif" font-size="11" lengthAdjust="spacing" textLength="129" x="153" y="1179.3613">cancelled or no keyword</text><line style="stroke:#181818;stroke-width:1.0;" x1="659" x2="659" y1="1231.2654" y2="1241.2654"/><line style="stroke:#181818;stroke-width:1.0;" x1="659" x2="1263" y1="1241.2654" y2="1241.2654"/><polygon fill="#181818" points="1259,878.0953,1263,868.0953,1267,878.0953,1263,874.0953" style="stroke:#181818;stroke-width:1.0;"/><line style="stroke:#181818;stroke-width:1.0;" x1="1263" x2="1263" y1="511.6481" y2="1241.2654"/><line style="stroke:#181818;stroke-width:1.0;" x1="1263" x2="724.5" y1="511.6481" y2="511.6481"/><polygon fill="#181818" points="734.5,507.6481,724.5,511.6481,734.5,515.6481,730.5,511.6481" style="stroke:#181818;stroke-width:1.0;"/><line style="stroke:#181818;stroke-width:1.0;" x1="593.5" x2="49" y1="511.6481" y2="511.6481"/><polygon fill="#181818" points="45,864.0953,49,874.0953,53,864.0953,49,868.0953" style="stroke:#181818;stroke-width:1.0;"/><line style="stroke:#181818;stroke-width:1.0;" x1="49" x2="49" y1="511.6481" y2="1253.2654"/><line style="stroke:#181818;stroke-width:1.0;" x1="49" x2="659" y1="1253.2654" y2="1253.2654"/><line style="stroke:#181818;stroke-width:1.0;" x1="659" x2="659" y1="1253.2654" y2="1273.2654"/><polygon fill="#181818" points="655,1263.2654,659,1273.2654,663,1263.2654,659,1267.2654" style="stroke:#181818;stroke-width:1.0;"/><line style="stroke:#181818;stroke-width:1.0;" x1="659" x2="659" y1="479.6481" y2="499.6481"/><polygon fill="#181818" points="655,489.6481,659,499.6481,663,489.6481,659,493.6481" style="stroke:#181818;stroke-width:1.0;"/><line style="stroke:#181818;stroke-width:1.0;" x1="659" x2="659" y1="1297.2654" y2="1330.5243"/><polygon fill="#181818" points="655,1320.5243,659,1330.5243,663,1320.5243,659,1324.5243" style="stroke:#181818;stroke-width:1.0;"/><line style="stroke:#181818;stroke-width:1.0;" x1="659" x2="659" y1="1366.8684" y2="1376.8684"/><line style="stroke:#181818;stroke-width:1.0;" x1="659" x2="795.5" y1="1376.8684" y2="1376.8684"/><polygon fill="#181818" points="791.5,1339.2054,795.5,1329.2054,799.5,1339.2054,795.5,1335.2054" style="stroke:#181818;stroke-width:1.0;"/><line style="stroke:#181818;stroke-width:1.0;" x1="795.5" x2="795.5" y1="1285.2654" y2="1376.8684"/><line style="stroke:#181818;stroke-width:1.0;" x1="795.5" x2="783.5" y1="1285.2654" y2="1285.2654"/><polygon fill="#181818" points="793.5,1281.2654,783.5,1285.2654,793.5,1289.2654,789.5,1285.2654" style="stroke:#181818;stroke-width:1.0;"/><line style="stroke:#181818;stroke-width:1.0;" x1="534.5" x2="522.5" y1="1285.2654" y2="1285.2654"/><polygon fill="#181818" points="518.5,1325.2054,522.5,1335.2054,526.5,1325.2054,522.5,1329.2054" style="stroke:#181818;stroke-width:1.0;"/><line style="stroke:#181818;stroke-width:1.0;" x1="522.5" x2="522.5" y1="1285.2654" y2="1388.8684"/><line style="stroke:#181818;stroke-width:1.0;" x1="522.5" x2="659" y1="1388.8684" y2="1388.8684"/><line style="stroke:#181818;stroke-width:1.0;" x1="659" x2="659" y1="1388.8684" y2="1408.8684"/><polygon fill="#181818" points="655,1398.8684,659,1408.8684,663,1398.8684,659,1402.8684" style="stroke:#181818;stroke-width:1.0;"/><line style="stroke:#181818;stroke-width:1.0;" x1="659" x2="659" y1="305.1248" y2="330.6158"/><polygon fill="#181818" points="655,320.6158,659,330.6158,663,320.6158,659,324.6158" style="stroke:#181818;stroke-width:1.0;"/><line style="stroke:#181818;stroke-width:1.0;" x1="731.5" x2="1273" y1="290.1429" y2="290.1429"/><polygon fill="#181818" points="1269,828.7511,1273,838.7511,1277,828.7511,1273,832.7511" style="stroke:#181818;stroke-width:1.0;"/><line style="stroke:#181818;stroke-width:1.0;" x1="1273" x2="1273" y1="290.1429" y2="1420.8684"/><line style="stroke:#181818;stroke-width:1.0;" x1="1273" x2="671" y1="1420.8684" y2="1420.8684"/><polygon fill="#181818" points="681,1416.8684,671,1420.8684,681,1424.8684,677,1420.8684" style="stroke:#181818;stroke-width:1.0;"/><line style="stroke:#181818;stroke-width:1.0;" x1="659" x2="659" y1="249.6701" y2="275.1611"/><polygon fill="#181818" points="655,265.1611,659,275.1611,663,265.1611,659,269.1611" style="stroke:#181818;stroke-width:1.0;"/><line style="stroke:#181818;stroke-width:1.0;" x1="735" x2="763" y1="237.6701" y2="237.6701"/><polygon fill="#181818" points="753,233.6701,763,237.6701,753,241.6701,757,237.6701" style="stroke:#181818;stroke-width:1.0;"/><line style="stroke:#181818;stroke-width:1.0;" x1="659" x2="659" y1="1432.8684" y2="1442.8684"/><line style="stroke:#181818;stroke-width:1.0;" x1="659" x2="1291" y1="1442.8684" y2="1442.8684"/><polygon fill="#181818" points="1287,815.7693,1291,805.7693,1295,815.7693,1291,811.7693" style="stroke:#181818;stroke-width:1.0;"/><line style="stroke:#181818;stroke-width:1.0;" x1="1291" x2="1291" y1="174.6882" y2="1442.8684"/><line style="stroke:#181818;stroke-width:1.0;" x1="1291" x2="717" y1="174.6882" y2="174.6882"/><polygon fill="#181818" points="727,170.6882,717,174.6882,727,178.6882,723,174.6882" style="stroke:#181818;stroke-width:1.0;"/><line style="stroke:#181818;stroke-width:1.0;" x1="659" x2="659" y1="186.6882" y2="225.6701"/><polygon fill="#181818" points="655,215.6701,659,225.6701,663,215.6701,659,219.6701" style="stroke:#181818;stroke-width:1.0;"/><line style="stroke:#181818;stroke-width:1.0;" x1="601" x2="24" y1="174.6882" y2="174.6882"/><line style="stroke:#181818;stroke-width:1.0;" x1="24" x2="24" y1="174.6882" y2="210.6882"/><polygon fill="#181818" points="20,200.6882,24,210.6882,28,200.6882,24,204.6882" style="stroke:#181818;stroke-width:1.0;"/><line style="stroke:#181818;stroke-width:1.0;" x1="659" x2="659" y1="142.6882" y2="162.6882"/><polygon fill="#181818" points="655,152.6882,659,162.6882,663,152.6882,659,156.6882" style="stroke:#181818;stroke-width:1.0;"/><!--SRC=[fLIzRjim4Dxr5DVD6V82yX04IL5uA1gaIQSk17cA25EaG59MbAVlKTQ_HTb0kLayVdztlc-bPHy5WyhX7xHUSgOE6HYTEC-iJz8Vw459vy5ay8BM6IqDV2zAPHf4jq_ILwQ5AUGN3cMJswJEfKBO5SRY-FtX3gI3NOFkBac0ZinWzsOyKs0hxMM1W9ySKQ2WKf-ZXfqsNMrVtwC12VML0yQzF27yrQG7i61I0P5xl0-o9a0ZQt_InofS1UyUWJduZVOaES8ZvuRqG6Ri87u_VpgDvuafr89HxOdGt4Rb4EGRUVsLPVHR6X7ocZxfiiiPsMBQaCOE-YA_wMcp2LMGavME00xFy69DIHrkua5C8HWKpFDSwey10pz9lfi72P6J_cJsEBSNaYsjuUWSYdqIVJeQE7Ts8EHCSrGAHPosfNv6XTJ8zP0tY54v38FcOSAqIJLA3KCtTojabg5zk9xs4d0EKrDgxR_78YSYrK1L2ffJGRXC3_DmGqjc6Rst88kHtLzzsqTq8yihtdEBWQWN7MlALM9DUMxdDsfB_WDfupfWjopH2LtCJZINfxRcflJFhgw0HaH71RVZwgLNk2wzlJzgKsiuObCRAq3gyuDr0Ub1EzejDxTtuGfemMhJSrrIhFYZJzr-lEZusjwizB1wvjgckpJcIcEzsQkvbXNHPxip3kTDcKpA5dx2zJy0]--></g></svg>